<svg width="18" height="18" viewBox="0 0 18 18" fill="none" xmlns="http://www.w3.org/2000/svg">
<path d="M9 0C13.97 0 18 3.58 18 8C18 12.42 12 18 9 18C6 18 0 12.42 0 8C0 3.58 4.03 0 9 0ZM7.31 7.93C6.29 6.29 4.47 5.58 3.25 6.34C2.03 7.1 1.87 9.05 2.89 10.69C3.92 12.33 5.74 13.04 6.96 12.28C8.18 11.5 8.33 9.57 7.31 7.93ZM10.69 7.93C9.67 9.57 9.82 11.5 11.04 12.28C12.26 13.04 14.08 12.33 15.11 10.69C16.13 9.05 15.97 7.1 14.75 6.34C13.53 5.58 11.71 6.29 10.69 7.93ZM9 14.75C7 14.75 6.5 14 6.5 14C6.5 14.03 7 16 9 16C11 16 11.5 14 11.5 14C11.5 14 11 14.75 9 14.75Z" fill="white"/>
</svg>
