<svg width="20" height="20" viewBox="0 0 20 20" fill="none" xmlns="http://www.w3.org/2000/svg">
<path d="M8.50001 2.06021e-08C10.0683 -0.000109149 11.606 0.433645 12.943 1.25327C14.28 2.07289 15.3642 3.24643 16.0757 4.64403C16.7871 6.04163 17.098 7.6088 16.974 9.17214C16.85 10.7355 16.2959 12.234 15.373 13.502L15.176 13.762L18.828 17.414C19.0093 17.5935 19.115 17.8356 19.1237 18.0905C19.1323 18.3455 19.0432 18.5942 18.8745 18.7856C18.7059 18.977 18.4704 19.0967 18.2164 19.1202C17.9623 19.1437 17.7089 19.0692 17.508 18.912L17.414 18.828L13.762 15.176C12.6975 16.015 11.4477 16.5872 10.117 16.8449C8.78635 17.1026 7.41333 17.0384 6.11252 16.6576C4.81171 16.2768 3.62084 15.5904 2.63925 14.6557C1.65766 13.7211 0.913817 12.5652 0.469788 11.2846C0.0257587 10.004 -0.105584 8.63574 0.0867177 7.29404C0.279019 5.95235 0.789389 4.67609 1.57525 3.57175C2.3611 2.46742 3.39966 1.56702 4.60427 0.945694C5.80887 0.324364 7.1446 0.000115493 8.50001 2.06021e-08ZM8.50001 2C6.7761 2 5.1228 2.68482 3.90382 3.90381C2.68483 5.12279 2.00001 6.77609 2.00001 8.5C2.00001 10.2239 2.68483 11.8772 3.90382 13.0962C5.1228 14.3152 6.7761 15 8.50001 15C10.2239 15 11.8772 14.3152 13.0962 13.0962C14.3152 11.8772 15 10.2239 15 8.5C15 6.77609 14.3152 5.12279 13.0962 3.90381C11.8772 2.68482 10.2239 2 8.50001 2ZM8.50001 4C8.74494 4.00003 8.98135 4.08996 9.16438 4.25272C9.34742 4.41547 9.46435 4.63975 9.49301 4.883L9.50001 5V7.5H12C12.2549 7.50028 12.5 7.59788 12.6854 7.77285C12.8707 7.94782 12.9822 8.18695 12.9972 8.44139C13.0121 8.69584 12.9293 8.94638 12.7657 9.14183C12.6022 9.33729 12.3701 9.4629 12.117 9.493L12 9.5H9.50001V12C9.49973 12.2549 9.40213 12.5 9.22716 12.6854C9.05219 12.8707 8.81306 12.9822 8.55861 12.9972C8.30417 13.0121 8.05363 12.9293 7.85818 12.7657C7.66272 12.6021 7.53711 12.3701 7.50701 12.117L7.50001 12V9.5H5.00001C4.74513 9.49972 4.49998 9.40212 4.31464 9.22715C4.1293 9.05218 4.01777 8.81305 4.00284 8.55861C3.9879 8.30416 4.07068 8.05362 4.23427 7.85817C4.39786 7.66271 4.62991 7.5371 4.88301 7.507L5.00001 7.5H7.50001V5C7.50001 4.73478 7.60537 4.48043 7.7929 4.29289C7.98044 4.10536 8.23479 4 8.50001 4Z" fill="white"/>
</svg>
